<svg xmlns="http://www.w3.org/2000/svg" width="53.192" height="54.63" viewBox="0 0 53.192 54.63"><g transform="translate(-902.246 -50.827)"><path d="M933.93,97.476a17.367,17.367,0,0,1-14.532,7.981,16.962,16.962,0,0,1-7.246-32.385,16.855,16.855,0,0,0-2.659,8.943,17.242,17.242,0,0,0,17.152,17.158,19,19,0,0,0,7.286-1.7ZM941.177,61c.231-.269.5-.5.231-.731,0-.231-.231-.462-.731-.462l-5.782-.5c-.5,0-.733-.231-.733-.5l-2.428-7.479c-.231-.231-.464-.5-.731-.5h0c-.233,0-.735.269-.735.5l-2.159,7.479c0,.271-.229.5-.731.5l-5.782.5c-.5.231-.731.231-.731.693a.933.933,0,0,0,.231.733l4.587,3.854a.884.884,0,0,1,.269.733l-1.464,5.822c0,.231.231.693.462.693a.97.97,0,0,0,.733.231l5.087-3.352h.733l5.318,3.121a.474.474,0,0,0,.733,0c.231-.231.462-.462.231-.693l-1.2-5.822a.742.742,0,0,1,.231-.964ZM955.438,83.21v-.46a.5.5,0,0,0-.462-.5l-3.892-.233c-.233,0-.233,0-.464-.231l-1.464-4.856c-.231-.231-.231-.464-.5-.464h0a.5.5,0,0,0-.464.464l-1.464,4.856a.226.226,0,0,1-.231.231l-4.123.464a.242.242,0,0,0-.233.271.318.318,0,0,0,0,.46l3.161,2.661v.5l-.733,3.854a.849.849,0,0,0,.231.5h.5l3.354-2.2h.5l3.392,1.928c0,.269.231.269.5,0a.815.815,0,0,0,.231-.464l-.964-3.623v-.5Z" transform="translate(0 0)" fill="#4a5584" fill-rule="evenodd"/></g></svg>