<svg xmlns="http://www.w3.org/2000/svg" width="44.192" height="40.016" viewBox="0 0 44.192 40.016"><g transform="translate(-123 -884)"><g transform="translate(-309.347 834.818)"><path d="M470.155,58.484A9.317,9.317,0,0,0,461.02,50.2a9.006,9.006,0,0,0-6.055,2.255,8.407,8.407,0,0,0-14.858,3.276,8.378,8.378,0,0,0,.687,16.733,8.276,8.276,0,0,0,2.778-.522,8.391,8.391,0,0,0,6.716,3.44,8.785,8.785,0,0,0,4.677-1.376,8.2,8.2,0,0,0,13.292-2.395,4.005,4.005,0,0,0,1.374.165,6.66,6.66,0,0,0,.523-13.292ZM464.293,87.3h11.228a.935.935,0,0,1,1.018.853h0a1.1,1.1,0,0,1-1.018,1.045H464.293a1.009,1.009,0,0,1-1.045-1.045h0c0-.523.358-.853,1.045-.853Zm-30.93,0H460.14a.962.962,0,0,1,1.045.853h0A1.124,1.124,0,0,1,460.14,89.2H433.364a.982.982,0,0,1-.852-1.045h0a.809.809,0,0,1,.852-.853Zm30.408-4.486h11.749a.808.808,0,0,1,.853.853h0c0,.688-.33,1.045-.853,1.045H463.772a1.01,1.01,0,0,1-1.047-1.045h0a.982.982,0,0,1,1.047-.853Zm-30.214,0h20.72a.807.807,0,0,1,.853.853h0c0,.688-.328,1.045-.853,1.045h-20.72a1.009,1.009,0,0,1-1.045-1.045h0a.982.982,0,0,1,1.045-.853Zm0-4.486h41.964a.962.962,0,0,1,.853,1.045h0a.953.953,0,0,1-.853,1.02H433.557a1.122,1.122,0,0,1-1.045-1.02h0a1.125,1.125,0,0,1,1.045-1.045Z" transform="translate(0)" fill="#4a5584" fill-rule="evenodd"/></g></g></svg>