<svg xmlns="http://www.w3.org/2000/svg" width="47.192" height="42.715" viewBox="0 0 47.192 42.715"><g transform="translate(-120 -688)"><g transform="translate(-311.747 543.222)"><path d="M445.832,176.629c.335-.534.335-3.7.335-3.7a28.663,28.663,0,0,0-2.8,2.469,1.473,1.473,0,0,0,.7,1.936,1.311,1.311,0,0,0,1.769-.7Zm23.595-15.49a5.584,5.584,0,0,0-5.1-5.614,8.167,8.167,0,0,0-8.109-7.211,7.648,7.648,0,0,0-5.106,1.937,7.066,7.066,0,0,0-5.64-2.834,7.21,7.21,0,0,0-7.043,5.64,7.222,7.222,0,0,0,.535,14.423,5.3,5.3,0,0,0,2.3-.532,7.081,7.081,0,0,0,5.807,3,7.745,7.745,0,0,0,4.041-1.067,6.926,6.926,0,0,0,4.938,1.937,7.171,7.171,0,0,0,6.508-4.041h1.235a5.569,5.569,0,0,0,5.638-5.64Zm9.512-2.807a5.685,5.685,0,0,0-5.106-5.612,8.208,8.208,0,0,0-8.109-7.043,7.656,7.656,0,0,0-5.106,1.936,6.836,6.836,0,0,0-5.64-2.834,7.055,7.055,0,0,0-5.273,2.3,8.726,8.726,0,0,1,1.57,1.235,9.3,9.3,0,0,1,4.938-1.4,9.458,9.458,0,0,1,9.343,7.184,7.249,7.249,0,0,1-.2,14.088h.364a7.413,7.413,0,0,0,6.51-4.209,2.369,2.369,0,0,0,1.066.168,5.713,5.713,0,0,0,5.64-5.809Zm-27.467,29.017a1.473,1.473,0,0,0,1.934-.7c.338-.534.338-3.7.338-3.7a26.056,26.056,0,0,0-2.807,2.469,1.576,1.576,0,0,0,.535,1.937Zm-4.94,0a1.289,1.289,0,0,0,1.767-.7,17.661,17.661,0,0,0,.506-3.7A28.858,28.858,0,0,0,446,185.412a1.432,1.432,0,0,0,.532,1.937Zm9.681-5.612a16.8,16.8,0,0,0,.336-3.7,15.145,15.145,0,0,0-2.608,2.469,1.217,1.217,0,0,0,.5,1.767,1.241,1.241,0,0,0,1.769-.532Zm-5.976.532a1.246,1.246,0,0,0,1.767-.532,16.8,16.8,0,0,0,.336-3.7s-2.469,1.767-2.636,2.469a1.225,1.225,0,0,0,.532,1.767Zm-5.108,0a1.439,1.439,0,0,0,1.937-.532,16.8,16.8,0,0,0,.336-3.7A15.078,15.078,0,0,0,444.6,180.5a1.366,1.366,0,0,0,.532,1.767Zm9.315-4.94a1.3,1.3,0,0,0,1.769-.7c.336-.534.336-3.7.336-3.7a27.1,27.1,0,0,0-2.608,2.469,1.4,1.4,0,0,0,.5,1.936Z" transform="translate(0 0)" fill="#4a5584" fill-rule="evenodd"/></g><path d="M-347.984,80.345a.328.328,0,0,0,.465,0l.561-.561h.253a.984.984,0,0,0,.6.6v.253l-.561.561a.328.328,0,0,0,0,.465.328.328,0,0,0,.465,0l.425-.425.425.425a.328.328,0,0,0,.465,0,.328.328,0,0,0,0-.465l-.561-.561v-.253a.984.984,0,0,0,.6-.6h.253l.561.561a.328.328,0,0,0,.465,0,.328.328,0,0,0,0-.465l-.425-.425.425-.425a.328.328,0,0,0,0-.465.328.328,0,0,0-.465,0l-.561.561h-.253a.984.984,0,0,0-.6-.6v-.253l.561-.561a.328.328,0,0,0,0-.465.328.328,0,0,0-.465,0l-.425.425-.425-.425a.328.328,0,0,0-.465,0,.328.328,0,0,0,0,.465l.561.561v.253a.984.984,0,0,0-.6.6h-.253l-.561-.561a.328.328,0,0,0-.465,0,.328.328,0,0,0,0,.465l.425.425-.425.425A.328.328,0,0,0-347.984,80.345Zm2.2-1.218a.329.329,0,0,1,.329.329.329.329,0,0,1-.329.329.329.329,0,0,1-.329-.329A.329.329,0,0,1-345.781,79.127Z" transform="translate(474.667 643.294)" fill="#4a5584"/><path d="M-347.984,80.345a.328.328,0,0,0,.465,0l.561-.561h.253a.984.984,0,0,0,.6.6v.253l-.561.561a.328.328,0,0,0,0,.465.328.328,0,0,0,.465,0l.425-.425.425.425a.328.328,0,0,0,.465,0,.328.328,0,0,0,0-.465l-.561-.561v-.253a.984.984,0,0,0,.6-.6h.253l.561.561a.328.328,0,0,0,.465,0,.328.328,0,0,0,0-.465l-.425-.425.425-.425a.328.328,0,0,0,0-.465.328.328,0,0,0-.465,0l-.561.561h-.253a.984.984,0,0,0-.6-.6v-.253l.561-.561a.328.328,0,0,0,0-.465.328.328,0,0,0-.465,0l-.425.425-.425-.425a.328.328,0,0,0-.465,0,.328.328,0,0,0,0,.465l.561.561v.253a.984.984,0,0,0-.6.6h-.253l-.561-.561a.328.328,0,0,0-.465,0,.328.328,0,0,0,0,.465l.425.425-.425.425A.328.328,0,0,0-347.984,80.345Zm2.2-1.218a.329.329,0,0,1,.329.329.329.329,0,0,1-.329.329.329.329,0,0,1-.329-.329A.329.329,0,0,1-345.781,79.127Z" transform="translate(494.667 638.294)" fill="#4a5584"/><path d="M-347.984,80.345a.328.328,0,0,0,.465,0l.561-.561h.253a.984.984,0,0,0,.6.6v.253l-.561.561a.328.328,0,0,0,0,.465.328.328,0,0,0,.465,0l.425-.425.425.425a.328.328,0,0,0,.465,0,.328.328,0,0,0,0-.465l-.561-.561v-.253a.984.984,0,0,0,.6-.6h.253l.561.561a.328.328,0,0,0,.465,0,.328.328,0,0,0,0-.465l-.425-.425.425-.425a.328.328,0,0,0,0-.465.328.328,0,0,0-.465,0l-.561.561h-.253a.984.984,0,0,0-.6-.6v-.253l.561-.561a.328.328,0,0,0,0-.465.328.328,0,0,0-.465,0l-.425.425-.425-.425a.328.328,0,0,0-.465,0,.328.328,0,0,0,0,.465l.561.561v.253a.984.984,0,0,0-.6.6h-.253l-.561-.561a.328.328,0,0,0-.465,0,.328.328,0,0,0,0,.465l.425.425-.425.425A.328.328,0,0,0-347.984,80.345Zm2.2-1.218a.329.329,0,0,1,.329.329.329.329,0,0,1-.329.329.329.329,0,0,1-.329-.329A.329.329,0,0,1-345.781,79.127Z" transform="translate(499.667 647.294)" fill="#4a5584"/><path d="M-347.984,80.345a.328.328,0,0,0,.465,0l.561-.561h.253a.984.984,0,0,0,.6.6v.253l-.561.561a.328.328,0,0,0,0,.465.328.328,0,0,0,.465,0l.425-.425.425.425a.328.328,0,0,0,.465,0,.328.328,0,0,0,0-.465l-.561-.561v-.253a.984.984,0,0,0,.6-.6h.253l.561.561a.328.328,0,0,0,.465,0,.328.328,0,0,0,0-.465l-.425-.425.425-.425a.328.328,0,0,0,0-.465.328.328,0,0,0-.465,0l-.561.561h-.253a.984.984,0,0,0-.6-.6v-.253l.561-.561a.328.328,0,0,0,0-.465.328.328,0,0,0-.465,0l-.425.425-.425-.425a.328.328,0,0,0-.465,0,.328.328,0,0,0,0,.465l.561.561v.253a.984.984,0,0,0-.6.6h-.253l-.561-.561a.328.328,0,0,0-.465,0,.328.328,0,0,0,0,.465l.425.425-.425.425A.328.328,0,0,0-347.984,80.345Zm2.2-1.218a.329.329,0,0,1,.329.329.329.329,0,0,1-.329.329.329.329,0,0,1-.329-.329A.329.329,0,0,1-345.781,79.127Z" transform="translate(484.667 638.294)" fill="#4a5584"/><circle cx="1.25" cy="1.25" r="1.25" transform="translate(129.084 727.052)" fill="#4a5584"/><circle cx="1.25" cy="1.25" r="1.25" transform="translate(129.084 714.052)" fill="#4a5584"/><circle cx="1.25" cy="1.25" r="1.25" transform="translate(125.084 717.052)" fill="#4a5584"/><circle cx="1.25" cy="1.25" r="1.25" transform="translate(148.084 723.052)" fill="#4a5584"/><circle cx="1.25" cy="1.25" r="1.25" transform="translate(154.084 714.052)" fill="#4a5584"/><circle cx="1.25" cy="1.25" r="1.25" transform="translate(153.084 720.052)" fill="#4a5584"/><circle cx="1.25" cy="1.25" r="1.25" transform="translate(144.084 727.052)" fill="#4a5584"/></g></svg>