<svg xmlns="http://www.w3.org/2000/svg" width="50.848" height="56.477" viewBox="0 0 50.848 56.477"><g transform="translate(-116.344 -473)"><g transform="translate(64.719 326.938)"><path d="M92.039,159.089h0a8.461,8.461,0,0,0-8.329-7.154,10.458,10.458,0,0,0-3.84.686,12.323,12.323,0,0,0-11.678-8.559,12.728,12.728,0,0,0-12.664,12.629,14.708,14.708,0,0,0,.458,3.347,10.125,10.125,0,0,0-5.705,9.054v.228c0,5.477,4.526,10.5,10,10.5H91.09c5.475,0,10.039-5.021,10.039-10.5v-.228a10.075,10.075,0,0,0-9.089-10Z" transform="translate(1.344 2)" fill="#4a5584" fill-rule="evenodd"/></g><g transform="translate(127 -63)"><g transform="translate(-5 572.878)"><path d="M275.875,431.984a3.875,3.875,0,1,0,3.875,3.875A3.879,3.879,0,0,0,275.875,431.984Zm0,6.2a2.325,2.325,0,1,1,2.325-2.325A2.328,2.328,0,0,1,275.875,438.184Z" transform="translate(-256.5 -420.134)" fill="#4a5584"/><path d="M115.875,431.984a3.875,3.875,0,1,0,3.875,3.875A3.879,3.879,0,0,0,115.875,431.984Zm0,6.2a2.325,2.325,0,1,1,2.325-2.325A2.328,2.328,0,0,1,115.875,438.184Z" transform="translate(-112 -420.134)" fill="#4a5584"/><path d="M435.875,431.984a3.875,3.875,0,1,0,3.875,3.875A3.879,3.879,0,0,0,435.875,431.984Zm0,6.2a2.325,2.325,0,1,1,2.325-2.325A2.328,2.328,0,0,1,435.875,438.184Z" transform="translate(-401.001 -420.134)" fill="#4a5584"/><path d="M211.875,319.984a.775.775,0,0,0-.775.775v13.952a3.855,3.855,0,0,0-2.325-.777.775.775,0,1,0,0,1.55,2.328,2.328,0,0,1,2.325,2.325.775.775,0,1,0,1.55,0v-17.05a.775.775,0,0,0-.775-.775Z" transform="translate(-198.7 -318.984)" fill="#4a5584"/><path d="M371.875,333.934a3.855,3.855,0,0,0-2.325.777V320.759a.775.775,0,1,0-1.55,0v17.05a.775.775,0,1,0,1.55,0,2.328,2.328,0,0,1,2.325-2.325.775.775,0,0,0,0-1.55Z" transform="translate(-343.2 -318.984)" fill="#4a5584"/><path d="M304.842,309.663h0a.842.842,0,0,0-.841.841v8.653a.8.8,0,0,0,.727.8.775.775,0,0,0,.823-.774V310.37a.707.707,0,0,0-.708-.707Z" transform="translate(-285.4 -309.663)" fill="#4a5584"/></g></g></g></svg>