<svg xmlns="http://www.w3.org/2000/svg" width="49.471" height="39.015" viewBox="0 0 49.471 39.015"><g transform="translate(-122 -818.528)"><g transform="translate(-1042.317 669.906)"><path d="M1224.863,252.2q-6.518,0-13.036,0c-1.115,0-1.748-.416-1.921-1.229a1.588,1.588,0,0,1,1.278-1.94,3.853,3.853,0,0,1,.769-.04c8.594,0,17.188-.026,25.782.009a8.379,8.379,0,0,1,7.152,12.881,8.385,8.385,0,0,1-15.435-4.278,1.7,1.7,0,0,1,1.569-1.847c.907-.04,1.553.638,1.668,1.749a5.164,5.164,0,0,0,10.244.793,5.062,5.062,0,0,0-4.651-6.016c-4.47-.12-8.946-.031-13.419-.031Z" transform="translate(-36.746 -78.105)" fill="#4a5584"/><path d="M1181.231,168.958c-2.767,0-5.535.028-8.3-.007a8.388,8.388,0,1,1,8.135-8.662,1.673,1.673,0,0,1-1.517,1.884c-.968.061-1.615-.654-1.72-1.9a5.153,5.153,0,0,0-7.632-4.234,5.254,5.254,0,0,0-2.557,5.672,5.086,5.086,0,0,0,4.668,3.956c3.021.1,6.048.048,9.073.054q4.248.008,8.5,0a1.806,1.806,0,0,1,1.763.762,1.609,1.609,0,0,1-1.525,2.46c-2.026.044-4.054.012-6.082.013Z" fill="#4a5584"/><path d="M1208.609,282.157c-1.319,0-2.639.024-3.958-.008a1.523,1.523,0,0,1-1.677-1.588,1.485,1.485,0,0,1,1.568-1.594,79.713,79.713,0,0,1,8.777.087,8.283,8.283,0,0,1,7.283,7.668c.079,1.221-.36,1.962-1.289,2.17a1.534,1.534,0,0,1-1.881-1.533,5.515,5.515,0,0,0-1.807-3.916,5.046,5.046,0,0,0-3.445-1.283h-3.572Z" transform="translate(-31.187 -102.232)" fill="#4a5584"/><path d="M1175.617,242.475c1.8.006,2.2.407,2.192,2.219-.006,1.893-.4,2.269-2.359,2.259-1.69-.008-2.137-.5-2.13-2.328C1173.325,242.913,1173.8,242.469,1175.617,242.475Z" transform="translate(-7.263 -72.856)" fill="#4a5584"/><path d="M1177.81,278.109c.01,1.753-.422,2.249-1.964,2.259-2.031.013-2.507-.388-2.519-2.125-.014-1.908.419-2.355,2.287-2.362C1177.383,275.874,1177.8,276.3,1177.81,278.109Z" transform="translate(-7.268 -99.807)" fill="#4a5584"/><path d="M1359.431,215.765c1.932,0,2.266.353,2.271,2.409,0,1.612-.509,2.09-2.246,2.091s-2.254-.524-2.255-2.316C1357.2,216.222,1357.666,215.767,1359.431,215.765Z" transform="translate(-171.61 -57.307)" fill="#4a5584"/></g><path d="M106.466,20.472h15.54A2.466,2.466,0,0,0,124.21,16.9l-7.77-15.539a2.465,2.465,0,0,0-4.41,0l-7.77,15.54a2.465,2.465,0,0,0,2.205,3.569Zm7.726-17.913h.089a1.877,1.877,0,0,1,1.875,1.875c0,.043,0,.086,0,.128l-.592,8.28a1.326,1.326,0,0,1-2.646,0l-.591-8.275c0-.047,0-.09,0-.133A1.877,1.877,0,0,1,114.192,2.559Zm.044,12.795a1.919,1.919,0,1,1-1.919,1.919A1.922,1.922,0,0,1,114.236,15.354Z" transform="translate(47 818.528)" fill="#4a5584"/></g></svg>