<svg xmlns="http://www.w3.org/2000/svg" width="42.675" height="40.006" viewBox="0 0 42.675 40.006"><g transform="translate(-120 -551.547)"><g transform="translate(559.103 474.391)"><path d="M-437.826,154.654H-406.4a9.865,9.865,0,0,0,9.993-9.932c0-3.769-2.317-7.571-7.493-7.571a7.458,7.458,0,0,0-7.5,7.418,4.773,4.773,0,0,0,5,5.084,5.006,5.006,0,0,0,5-5,1.249,1.249,0,0,0-1.25-1.25,1.249,1.249,0,0,0-1.25,1.25,2.5,2.5,0,0,1-2.5,2.5,2.31,2.31,0,0,1-2.5-2.583,4.983,4.983,0,0,1,5-4.918c3.681,0,4.992,2.619,4.992,5.07a7.7,7.7,0,0,1-1.924,5.047,7.187,7.187,0,0,1-5.568,2.384h-31.421a1.249,1.249,0,0,0-1.25,1.25A1.25,1.25,0,0,0-437.826,154.654Z" transform="translate(-0.025 -54.995)" fill="#4a5584"/><path d="M-420.155,377.137h-17.669a1.249,1.249,0,0,0-1.25,1.25,1.25,1.25,0,0,0,1.25,1.25h17.669a6.181,6.181,0,0,1,6.25,6.2,3.513,3.513,0,0,1-3.749,3.8,3.691,3.691,0,0,1-3.747-3.6c0-.879.357-1.4,1.247-1.4a1.251,1.251,0,0,1,1.25,1.25,1.249,1.249,0,0,0,1.25,1.25,1.249,1.249,0,0,0,1.25-1.25,3.755,3.755,0,0,0-3.751-3.751,3.635,3.635,0,0,0-3.747,3.9,6.187,6.187,0,0,0,6.247,6.1,6.083,6.083,0,0,0,4.713-1.941,6.52,6.52,0,0,0,1.537-4.36A8.641,8.641,0,0,0-420.155,377.137Z" transform="translate(-0.026 -274.978)" fill="#4a5584"/><path d="M-437.825,259.644h7.585a1.249,1.249,0,0,0,1.25-1.25,1.25,1.25,0,0,0-1.25-1.25h-7.585a1.25,1.25,0,0,0-1.25,1.25A1.249,1.249,0,0,0-437.825,259.644Z" transform="translate(-0.026 -164.986)" fill="#4a5584"/><path d="M-427.74,467.131h-10.085a1.25,1.25,0,0,0-1.25,1.25,1.249,1.249,0,0,0,1.25,1.25h10.085a1.249,1.249,0,0,0,1.25-1.25A1.25,1.25,0,0,0-427.74,467.131Z" transform="translate(-0.026 -357.47)" fill="#4a5584"/><path d="M-347.714,89.291a1.25,1.25,0,0,0,1.768,0l2.134-2.134h.963a3.745,3.745,0,0,0,2.27,2.27v.963l-2.134,2.134a1.25,1.25,0,0,0,0,1.768,1.25,1.25,0,0,0,1.768,0l1.617-1.616,1.616,1.616a1.25,1.25,0,0,0,1.768,0,1.25,1.25,0,0,0,0-1.768l-2.134-2.134v-.963a3.746,3.746,0,0,0,2.27-2.27h.963l2.134,2.134a1.25,1.25,0,0,0,1.768,0,1.25,1.25,0,0,0,0-1.768l-1.616-1.617,1.616-1.616a1.25,1.25,0,0,0,0-1.768,1.25,1.25,0,0,0-1.768,0l-2.134,2.134h-.963a3.746,3.746,0,0,0-2.27-2.27v-.963l2.134-2.134a1.25,1.25,0,0,0,0-1.768,1.25,1.25,0,0,0-1.768,0l-1.616,1.616-1.617-1.616a1.25,1.25,0,0,0-1.768,0,1.25,1.25,0,0,0,0,1.768l2.134,2.134v.963a3.746,3.746,0,0,0-2.27,2.27h-.963l-2.134-2.134a1.25,1.25,0,0,0-1.768,0,1.25,1.25,0,0,0,0,1.768l1.617,1.616-1.617,1.617A1.25,1.25,0,0,0-347.714,89.291Zm8.385-4.635a1.251,1.251,0,0,1,1.25,1.25,1.251,1.251,0,0,1-1.25,1.25,1.251,1.251,0,0,1-1.25-1.25A1.251,1.251,0,0,1-339.329,84.657Z" transform="translate(-83.436)" fill="#4a5584"/><path d="M-65.845,419.489H-68.68l1.418-2.455a1.25,1.25,0,0,0-.458-1.708,1.247,1.247,0,0,0-1.708.458l-1.417,2.455-1.417-2.455a1.248,1.248,0,0,0-1.708-.458,1.25,1.25,0,0,0-.458,1.708l1.418,2.455h-2.835a1.249,1.249,0,0,0-1.25,1.25,1.249,1.249,0,0,0,1.25,1.25h2.835l-1.418,2.455a1.25,1.25,0,0,0,.458,1.708,1.244,1.244,0,0,0,.624.167,1.249,1.249,0,0,0,1.084-.625l1.417-2.455,1.417,2.455a1.249,1.249,0,0,0,1.084.625,1.243,1.243,0,0,0,.624-.167,1.25,1.25,0,0,0,.458-1.708l-1.418-2.455h2.835a1.249,1.249,0,0,0,1.25-1.25A1.249,1.249,0,0,0-65.845,419.489Z" transform="translate(-331.833 -309.828)" fill="#4a5584"/><circle cx="1.25" cy="1.25" r="1.25" transform="translate(-411.433 102.159)" fill="#4a5584"/><circle cx="1.25" cy="1.25" r="1.25" transform="translate(-434.019 114.661)" fill="#4a5584"/><circle cx="1" cy="1" r="1" transform="translate(-439.103 87.609)" fill="#4a5584"/></g></g></svg>