<svg xmlns="http://www.w3.org/2000/svg" width="48.536" height="47.864" viewBox="0 0 48.536 47.864"><g transform="translate(-337.39 -626.197)"><path d="M363.3,632.354c1.623.391,2.63.195,2.24-.423a22.972,22.972,0,0,0-2.046-3.474,9.007,9.007,0,0,0-1.625-2.242c-.421-.195-1.623,1.233-2.24,2.242a28.025,28.025,0,0,0-1.43,2.663c-.421.616.195,1.625,1.819,1.234H363.3Zm2.858,4.254a15.48,15.48,0,0,0-4.482-.81,16.848,16.848,0,0,0-4.709.81,15.139,15.139,0,0,0-10.782,14.65,15.492,15.492,0,1,0,19.973-14.65Zm8.54,1.009c1.039,1.428,2.046,2.046,2.046,1.233.195-.618.618-2.858.812-4.061a11.821,11.821,0,0,0,0-2.663c0-.389-2.046-.195-3.053.228-1.007.391-2.435,1.007-2.858,1.2-.618.195-.812,1.234.618,2.047l1.233,1.005,1.2,1.009Zm5.521,11.628c-.228,1.623.195,2.631.584,2.242.618-.423,2.469-2.047,3.281-2.663a11.967,11.967,0,0,0,1.819-2.047c.227-.389-1.43-1.43-2.631-1.819-1.039-.389-2.242-.81-2.858-1.007s-1.428.617-.812,2.046l.195,1.624.423,1.625Zm-3.281,12.214c-1.2,1.2-1.623,2.24-1.007,2.24h4.288a8,8,0,0,0,2.63-.421c.423-.195-.195-2.047-.811-2.86a20.224,20.224,0,0,1-1.624-2.826c-.423-.616-1.428-.616-2.046,1.008l-.812,1.428-.618,1.43Zm-10.588,7.34c-1.623.195-2.435.586-2.044,1.007a30.111,30.111,0,0,0,3.247,2.631,9.848,9.848,0,0,0,2.274,1.624c.389,0,1.005-1.819,1.2-2.826.228-1.235.423-2.665.618-3.281,0-.618-.812-1.2-2.24-.389l-1.43.616-1.624.618Zm-12.632-1.233c-1.43-.814-2.469-1.009-2.24-.423,0,.617.389,2.858.616,4.093a11.581,11.581,0,0,0,.812,2.631c.389.195,2.014-.619,2.858-1.43.812-.617,2.014-1.624,2.435-2.047.389-.389.195-1.4-1.428-1.591l-1.43-.618-1.623-.616Zm-8.963-8.965c-.423-1.624-1.235-2.437-1.43-1.853-.421.618-1.428,2.663-2.046,3.67a5.513,5.513,0,0,0-1.007,2.469c0,.391,1.819.812,2.826.812h3.279c.618,0,1.2-1.039,0-2.24l-.811-1.43-.812-1.428Zm-1.04-12.6c.618-1.428.618-2.663,0-2.469-.616.228-2.858,1.04-3.865,1.43a12.286,12.286,0,0,0-2.435,1.234c-.228.391,1.007,1.819,1.819,2.633.812.616,1.851,1.623,2.435,2.044.423.391,1.43,0,1.43-1.623l.421-1.625.195-1.624Zm7.146-10.393c1.624-.814,2.24-1.625,1.624-1.853-.618-.195-2.858-1.005-3.866-1.4a8.856,8.856,0,0,0-2.662-.618c-.389.195-.389,2.014-.195,3.053a32.753,32.753,0,0,0,.616,3.249c0,.618,1.007,1.007,2.24-.421l1.009-1.009,1.233-1.005Z" transform="translate(0 0)" fill="#4a5584" fill-rule="evenodd"/></g></svg>