<svg xmlns="http://www.w3.org/2000/svg" width="69.095" height="36.259" viewBox="0 0 69.095 36.259"><g transform="translate(-240.027 -55.123)"><path d="M276.58,59.7a8.07,8.07,0,0,0-7.034-4.576,6.337,6.337,0,0,0-4.315,1.6,8.633,8.633,0,0,0-3.8,7.295,7.051,7.051,0,0,0-4.616-1.6c-2.977,0-5.957,2.46-7.036,5.437h-1.594c-4.619,0-8.158,2.979-8.158,6.217,0,2.417,1.38,4.315,3.8,5.653a9.963,9.963,0,0,0,4.36,1.079c.259,0,.517-.259,1.077-.259v-.517c0-5.441,5.395-8.677,10.272-8.677h.259a9.674,9.674,0,0,1,8.675-5.4,10.11,10.11,0,0,1,2.718.52,11.121,11.121,0,0,1,4.057-5.7A7.009,7.009,0,0,1,276.58,59.7ZM302.345,72.95h-1.38a14.147,14.147,0,0,0-3.5.562,11.208,11.208,0,0,0-7.034-5.656,3.557,3.557,0,0,0-1.641-.56c-1.077-3.8-4.054-6.215-7.593-6.215a8.423,8.423,0,0,0-4.619,1.338,9.042,9.042,0,0,0-3.495,7.295,9,9,0,0,0-4.619-1.34,8.175,8.175,0,0,0-7.292,5.138h-1.641c-4.315,0-8.113,2.979-8.113,6.519a6.494,6.494,0,0,0,3.8,5.395,11.559,11.559,0,0,0,4.315,1.079h1.641a9.337,9.337,0,0,0,3.8,4.059,7.739,7.739,0,0,0,3.5.818,7.345,7.345,0,0,0,5.7-2.46,8.144,8.144,0,0,0,4.315,1.38c2.721,0,4.618-1.38,6.26-3.539A7.894,7.894,0,0,0,289.354,90c.52,0,1.079.3,1.855.3,2.977,0,5.7-2.2,7.078-4.877a3.467,3.467,0,0,0,1.6.259c.259,0,.821.259,1.079.259,3.539,0,6.516-1.855,7.6-4.315a3.145,3.145,0,0,0,.562-2.159c0-3.238-2.721-5.957-6.777-6.519Z" transform="translate(0)" fill="#4a5584" fill-rule="evenodd"/></g></svg>