<svg xmlns="http://www.w3.org/2000/svg" width="40.676" height="39.608" viewBox="0 0 40.676 39.608"><g transform="translate(-122 -750.306)"><g transform="translate(86 750.306)"><path d="M58.856,34.1h-18.9a1.839,1.839,0,0,1-1.837-1.837V3.959a1.839,1.839,0,0,1,1.837-1.837H57.606V6.93a2.462,2.462,0,0,0,2.46,2.46H65V20.577a6.7,6.7,0,0,1,1.783-.377l.339-.035V8.328a1.061,1.061,0,0,0-.318-.757L59.41.3a1.061,1.061,0,0,0-.744-.3H39.959A3.964,3.964,0,0,0,36,3.959v28.3a3.964,3.964,0,0,0,3.959,3.959H60.078c-.131-.176-.256-.357-.376-.539A8.1,8.1,0,0,1,58.856,34.1Zm.871-30.506,3.744,3.677H60.065a.338.338,0,0,1-.337-.337Z" transform="translate(0 0)" fill="#4a5584"/><path d="M149.71,238H134.752a1.061,1.061,0,1,0,0,2.122H149.71a1.061,1.061,0,1,0,0-2.122Z" transform="translate(-90.78 -221.164)" fill="#4a5584"/><path d="M134.752,300.122h12.2a1.061,1.061,0,0,0,0-2.122h-12.2a1.061,1.061,0,0,0,0,2.122Z" transform="translate(-90.78 -276.919)" fill="#4a5584"/><path d="M148.42,358H134.752a1.061,1.061,0,1,0,0,2.122H148.42a1.061,1.061,0,1,0,0-2.122Z" transform="translate(-90.78 -332.675)" fill="#4a5584"/><g transform="translate(58.428 20.61)"><path d="M446.737,357.365a4.456,4.456,0,0,0-2.686.894l6.466,6.732a4.9,4.9,0,0,0,.859-2.8A4.742,4.742,0,0,0,446.737,357.365Z" transform="translate(-437.614 -352.695)" fill="#4a5584"/><path d="M362.176,291.35a9.507,9.507,0,1,0,9.124,9.5A9.317,9.317,0,0,0,362.176,291.35Zm0,15.938a6.444,6.444,0,1,1,6.184-6.439A6.323,6.323,0,0,1,362.176,307.288Z" transform="translate(-353.052 -291.35)" fill="#4a5584"/><path d="M416.457,388.892a4.742,4.742,0,0,0,4.638,4.829,4.456,4.456,0,0,0,2.686-.894l-6.466-6.732A4.9,4.9,0,0,0,416.457,388.892Z" transform="translate(-411.972 -379.393)" fill="#4a5584"/></g></g></g></svg>