<svg xmlns="http://www.w3.org/2000/svg" width="42.675" height="52.018" viewBox="0 0 42.675 52.018"><g transform="translate(-148.744 -338.798)"><path d="M169.256,365.539v21.437a3.8,3.8,0,0,0,3.841,3.841h0a3.837,3.837,0,0,0,3.881-3.841,1.481,1.481,0,0,0-2.92,0,.983.983,0,1,1-1.921,0V365.269a7.789,7.789,0,0,1,3.112-.73,7.36,7.36,0,0,1,5.3,1.959,8.376,8.376,0,0,1,5.337-1.959,7.623,7.623,0,0,1,5.532,2.189A21.651,21.651,0,0,0,178.9,347.71a4.588,4.588,0,0,1-2.189.963,5.006,5.006,0,0,1-.73,2.88,3.107,3.107,0,0,1-4.071,1.191,2.945,2.945,0,0,1-1.459-.961,3.642,3.642,0,0,1-4.111.961,2.964,2.964,0,0,1-1.421-4.341,2.1,2.1,0,0,1-1.461-1.421,21.314,21.314,0,0,0-14.71,19.746,7.621,7.621,0,0,1,5.53-2.189,8.387,8.387,0,0,1,5.341,1.959,7.349,7.349,0,0,1,5.3-1.959,6.238,6.238,0,0,1,3.611,1h.73Zm-2.92-23.628c.5-.46.5-3.112.5-3.112s-2.65,1.421-2.918,2.152a.878.878,0,0,0,.5,1.459c.728.23,1.689.23,1.919-.5Zm6.262,9.144a1.907,1.907,0,0,0,1.957-.463,18.3,18.3,0,0,0,.23-3.15,25.932,25.932,0,0,0-2.88,1.959,1.078,1.078,0,0,0,.693,1.653Zm-5.532,0a1.708,1.708,0,0,0,1.919-.463c.5-.73.5-3.15.5-3.15s-2.652,1.461-2.882,1.959a1,1,0,0,0,.463,1.653Zm10.371-4.8c.461-.462.461-3.112.461-3.112s-2.65,1.421-2.882,2.152a.881.881,0,0,0,.5,1.461,1.718,1.718,0,0,0,1.921-.5Zm-6.262.5a1.86,1.86,0,0,0,1.921-.5,16.426,16.426,0,0,0,.23-3.112,14.61,14.61,0,0,0-2.88,2.152,1.086,1.086,0,0,0,.728,1.461Zm-5.53,0a1.759,1.759,0,0,0,1.921-.5c.458-.462.458-3.112.458-3.112s-2.65,1.421-2.88,2.152c-.5.5-.23,1.231.5,1.461Zm9.871-4.343c.73.23,1.689.23,1.921-.5.461-.46.461-3.112.461-3.112s-2.65,1.421-2.882,2.152a.879.879,0,0,0,.5,1.459Zm-3.611-.5a16.414,16.414,0,0,0,.23-3.112s-2.65,1.421-2.88,2.152c-.5.5,0,1.229.46,1.459a1.889,1.889,0,0,0,2.189-.5Z" transform="translate(0)" fill="#4a5584" fill-rule="evenodd"/></g></svg>