<svg xmlns="http://www.w3.org/2000/svg" width="55.258" height="59.572" viewBox="0 0 55.258 59.572"><g transform="translate(-113 -384.905)"><g transform="translate(-200.982 333.269)"><path d="M332.368,81.164a4.277,4.277,0,0,0,5.729-1.943,3.728,3.728,0,0,1,3.49-2.082,3.786,3.786,0,0,1,3.587,3.579,3.722,3.722,0,0,1-2.959,3.8,6.337,6.337,0,0,0-5.046,6.163v2.964a4.278,4.278,0,1,0,8.555,0V92.389a12.288,12.288,0,1,0-15.3-16.954A4.277,4.277,0,0,0,332.368,81.164Z" transform="translate(0 0)" fill="#4a5584"/><path d="M359.469,179.738a4.277,4.277,0,0,0-4.278,4.278v2.373a4.278,4.278,0,1,0,8.555,0v-2.373A4.277,4.277,0,0,0,359.469,179.738Z" transform="translate(-18.02 -79.458)" fill="#4a5584"/></g><g transform="translate(-127.763 143.562)"><path d="M285.463,256.162a8,8,0,0,1,1.145,15.929,1.28,1.28,0,0,0-1.145,1.361,1.224,1.224,0,0,0,1.145,1.11c.215,0,.215,0,.215-.215a10.363,10.363,0,0,0-.893-20.656,14.884,14.884,0,0,0-14.388-12.348,14.746,14.746,0,0,0-14.6,13.71,13.808,13.808,0,0,0-4.474-.893,11.532,11.532,0,0,0-2.256,22.873h.215a1.491,1.491,0,0,0,1.361-.9,1.707,1.707,0,0,0-1.11-1.574,8.958,8.958,0,0,1-7.444-8.949,9.093,9.093,0,0,1,9.234-8.986A7.566,7.566,0,0,1,257.4,258.2a1.443,1.443,0,0,0,1.324,0,1.255,1.255,0,0,0,.681-1.145v-.214a.862.862,0,0,1-.216-.681,12.467,12.467,0,0,1,12.349-12.348,12.2,12.2,0,0,1,7.875,2.935,12.451,12.451,0,0,1,4.257,7.411c0,.427,1.11,2,1.79,2Z" fill="#4a5584" fill-rule="evenodd"/></g></g></svg>