<svg xmlns="http://www.w3.org/2000/svg" width="36.755" height="48.78" viewBox="0 0 36.755 48.78"><path d="M88.972,45.922l.953-11.433h2.744V10a10.015,10.015,0,0,1,10-10h15.72V1.429a7.146,7.146,0,0,1-14.148,1.429h-1.573A7.154,7.154,0,0,0,95.527,10V34.489h2.744l.953,11.433H102.2V48.78H86V45.922ZM111.248,5.716a4.3,4.3,0,0,0,4.042-2.858h-8.085A4.3,4.3,0,0,0,111.248,5.716ZM96.356,45.922l-.715-8.575H92.555l-.715,8.575Z" transform="translate(-86)" fill="#7881ac"/><g transform="translate(14.747 7.643)"><path d="M404.65,312.135a1.866,1.866,0,0,0-2.638,0l-1.413,1.413a1.865,1.865,0,0,0,2.638,2.638l1.413-1.413A1.866,1.866,0,0,0,404.65,312.135Z" transform="translate(-400.053 -311.588)" fill="#7881ac"/></g><g transform="translate(31.611 7.643)"><path d="M400.6,312.135a1.866,1.866,0,0,1,2.638,0l1.413,1.413a1.865,1.865,0,0,1-2.638,2.638l-1.413-1.413A1.865,1.865,0,0,1,400.6,312.135Z" transform="translate(-400.053 -311.588)" fill="#7881ac"/></g><g transform="translate(22.763 12.809) rotate(-45)"><g transform="translate(0 0)"><path d="M4.6.546a1.866,1.866,0,0,0-2.638,0L.546,1.959A1.865,1.865,0,0,0,3.184,4.6L4.6,3.184A1.865,1.865,0,0,0,4.6.546Z" fill="#7881ac"/></g></g></svg>