<svg xmlns="http://www.w3.org/2000/svg" width="38.174" height="50.251" viewBox="0 0 38.174 50.251"><g transform="translate(-811.231 -501.701)"><g transform="translate(811.231 501.701)"><path d="M89.5,47.307l1.123-11.778h3.234V10.305C93.859,4.623,99.148,0,105.649,0h18.526V1.472c0,4.059-3.778,7.361-8.421,7.361-4.067,0-7.469-2.533-8.252-5.889h-1.853c-4.643,0-8.421,3.3-8.421,7.361V35.529h3.234l1.123,11.778h3.5v2.944H86V47.307ZM115.754,5.889a5.065,5.065,0,0,0,4.764-2.944H110.99A5.064,5.064,0,0,0,115.754,5.889ZM98.2,47.307l-.842-8.833H93.725l-.842,8.833Z" transform="translate(-86)" fill="#7881ac"/></g><g transform="translate(834 513)"><path d="M7.114,0a7.114,7.114,0,1,0,7.114,7.114A7.142,7.142,0,0,0,7.114,0ZM2.7,10.253A5.417,5.417,0,0,1,10.253,2.7a.421.421,0,0,1,.052.045L2.744,10.306A.423.423,0,0,1,2.7,10.253Zm4.416,2.28a5.379,5.379,0,0,1-3.139-1,.421.421,0,0,1-.052-.045l7.562-7.562a.415.415,0,0,1,.045.052,5.417,5.417,0,0,1-4.416,8.558Z" fill="#7881ac"/></g></g></svg>