<svg xmlns="http://www.w3.org/2000/svg" width="30.477" height="30.477" viewBox="0 0 30.477 30.477"><defs><style>.a{fill:#ff497a;}</style></defs><path class="a" d="M15.239,0A15.239,15.239,0,1,0,30.477,15.239,15.23,15.23,0,0,0,15.239,0Zm0,28.445A13.207,13.207,0,1,1,28.445,15.239,13.222,13.222,0,0,1,15.239,28.445Z"/><g transform="translate(13.027 7.22)"><path class="a" d="M225.459,147h-4.1v-6.984a1.254,1.254,0,0,0-2.508,0v8.238a1.254,1.254,0,0,0,1.254,1.254h5.353a1.254,1.254,0,1,0,0-2.508Z" transform="translate(-218.852 -138.765)"/></g></svg>