<svg xmlns="http://www.w3.org/2000/svg" width="38.056" height="38.056" viewBox="0 0 38.056 38.056"><path d="M119.8,109.363A10.936,10.936,0,1,0,130.736,120.3,10.948,10.948,0,0,0,119.8,109.363Zm0,19.579a8.643,8.643,0,1,1,8.643-8.643A8.653,8.653,0,0,1,119.8,128.942Zm0,0" transform="translate(-100.771 -101.271)" fill="#6b82eb"/><path d="M242.864,4.84v-3.2a1.147,1.147,0,0,0-2.294,0v3.2A1.147,1.147,0,0,0,242.864,4.84Zm0,0" transform="translate(-222.689 -0.5)" fill="#6b82eb"/><path d="M240.57,439.949v3.2a1.147,1.147,0,0,0,2.294,0v-3.2A1.147,1.147,0,0,0,240.57,439.949Zm0,0" transform="translate(-222.689 -406.233)" fill="#6b82eb"/><path d="M382,74.891l2.264-2.265A1.147,1.147,0,0,0,382.642,71l-2.264,2.265A1.147,1.147,0,0,0,382,74.891Zm0,0" transform="translate(-351.774 -65.438)" fill="#6b82eb"/><path d="M72.705,380.943l-2.265,2.265a1.147,1.147,0,0,0,1.622,1.622l2.265-2.264A1.147,1.147,0,0,0,72.705,380.943Zm0,0" transform="translate(-64.875 -352.341)" fill="#6b82eb"/><path d="M442.65,241.07h-3.2a1.147,1.147,0,0,0,0,2.294h3.2A1.147,1.147,0,0,0,442.65,241.07Zm0,0" transform="translate(-405.732 -223.189)" fill="#6b82eb"/><path d="M4.34,241.07h-3.2a1.147,1.147,0,0,0,0,2.294h3.2A1.147,1.147,0,0,0,4.34,241.07Zm0,0" transform="translate(0 -223.189)" fill="#6b82eb"/><path d="M382.063,380.943a1.147,1.147,0,0,0-1.622,1.622l2.264,2.264a1.147,1.147,0,0,0,1.622-1.622Zm0,0" transform="translate(-351.837 -352.34)" fill="#6b82eb"/><path d="M72.77,74.9a1.147,1.147,0,0,0,1.622-1.622l-2.265-2.265a1.147,1.147,0,0,0-1.622,1.622Zm0,0" transform="translate(-64.939 -65.442)" fill="#6b82eb"/></svg>