<svg xmlns="http://www.w3.org/2000/svg" width="48.997" height="39.472" viewBox="0 0 48.997 39.472"><g transform="translate(23.063 13.538)"><path d="M242.435,241A1.435,1.435,0,0,0,241,242.435v1.537a1.435,1.435,0,1,0,2.871,0v-1.537A1.435,1.435,0,0,0,242.435,241Z" transform="translate(-241 -241)" fill="#6a81ea"/></g><g transform="translate(47.667 32.277) rotate(90)"><path d="M1.435,0A1.435,1.435,0,0,0,0,1.435V2.973a1.435,1.435,0,1,0,2.871,0V1.435A1.435,1.435,0,0,0,1.435,0Z" fill="#6a81ea"/></g><g transform="translate(6.736 32.277) rotate(90)"><path d="M1.435,0A1.435,1.435,0,0,0,0,1.435V2.973a1.435,1.435,0,1,0,2.871,0V1.435A1.435,1.435,0,0,0,1.435,0Z" fill="#6a81ea"/></g><g transform="translate(38.284 20.294)"><path d="M403.591,312.009a1.436,1.436,0,0,0-2.03,0l-1.087,1.087a1.435,1.435,0,0,0,2.03,2.03l1.087-1.087A1.436,1.436,0,0,0,403.591,312.009Z" transform="translate(-400.053 -311.588)" fill="#6a81ea"/></g><g transform="translate(6.755 20.293)"><path d="M74.126,313.093l-1.087-1.087a1.435,1.435,0,1,0-2.03,2.03l1.088,1.087a1.435,1.435,0,1,0,2.03-2.03Z" transform="translate(-70.588 -311.585)" fill="#6a81ea"/></g><g transform="translate(29.174 10.025) rotate(180)"><path d="M9.384,4.591a.869.869,0,0,0-1.229,0L5.689,7.057V.869a.869.869,0,0,0-1.739,0V7.057L1.484,4.591A.869.869,0,0,0,.255,5.82L4.2,9.771a.869.869,0,0,0,1.229,0l3.95-3.95A.869.869,0,0,0,9.384,4.591Z" fill="#6a81ea"/></g><g transform="translate(0 22.764)"><path d="M47.562,351.237H39.7a15.273,15.273,0,0,0-30.411,0H1.435a1.435,1.435,0,0,0,0,2.871H47.562a1.435,1.435,0,0,0,0-2.871Zm-35.383,0a12.4,12.4,0,0,1,24.64,0Z" transform="translate(0 -337.399)" fill="#6a81ea"/></g></svg>