<svg xmlns="http://www.w3.org/2000/svg" width="17.842" height="29.989" viewBox="0 0 17.842 29.989"><path d="M331.774,77.161a3.369,3.369,0,0,0,4.3-1.325,2.851,2.851,0,0,1,2.622-1.42,2.724,2.724,0,0,1,2.695,2.441,2.6,2.6,0,0,1-2.223,2.592,4.448,4.448,0,0,0-3.791,4.2v2.021a3.229,3.229,0,0,0,6.427,0v-.858a8.4,8.4,0,0,0,6.009-8.18c-.182-4.356-4.086-7.892-8.887-8.049a9.426,9.426,0,0,0-8.616,4.668A2.8,2.8,0,0,0,331.774,77.161Z" transform="translate(-329.982 -68.581)" fill="#fff"/><path d="M358.4,179.738a3.213,3.213,0,0,0-3.214,3.214v1.783a3.214,3.214,0,0,0,6.427,0v-1.783A3.213,3.213,0,0,0,358.4,179.738Z" transform="translate(-349.79 -157.959)" fill="#fff"/></svg>